<svg height='100px' width='100px'  fill="#000000" xmlns="http://www.w3.org/2000/svg" xmlns:xlink="http://www.w3.org/1999/xlink" version="1.1" x="0px" y="0px" viewBox="0 0 100 100" enable-background="new 0 0 100 100" xml:space="preserve"><path d="M67.588,49.98c0,9.364-7.592,16.956-16.955,16.956c-9.367,0-16.958-7.592-16.958-16.956c0-9.365,7.592-16.958,16.958-16.958  C59.996,33.022,67.588,40.615,67.588,49.98L67.588,49.98z M71.26,49.98c0-11.393-9.236-20.627-20.627-20.627  c-11.393,0-20.628,9.234-20.628,20.627c0,11.392,9.235,20.626,20.628,20.626C62.023,70.606,71.26,61.372,71.26,49.98L71.26,49.98z"></path><g><path d="M49.116,78.698c0-0.836,0.68-1.516,1.517-1.516c0.836,0,1.516,0.68,1.516,1.516v7.701c0,0.836-0.68,1.516-1.516,1.516   c-0.837,0-1.517-0.68-1.517-1.516V78.698z"></path></g><g><path d="M49.116,21.261c0,0.837,0.68,1.517,1.517,1.517c0.836,0,1.516-0.68,1.516-1.517v-7.7c0-0.837-0.68-1.516-1.516-1.516   c-0.837,0-1.517,0.679-1.517,1.516V21.261z"></path></g><g><path d="M21.913,48.465c0.838,0,1.516,0.679,1.516,1.516c0,0.836-0.678,1.516-1.516,1.516h-7.7c-0.837,0-1.516-0.68-1.516-1.516   c0-0.837,0.679-1.516,1.516-1.516H21.913z"></path></g><g><path d="M79.352,48.465c-0.838,0-1.516,0.679-1.516,1.516c0,0.836,0.678,1.516,1.516,1.516h7.701c0.836,0,1.514-0.68,1.514-1.516   c0-0.837-0.678-1.516-1.514-1.516H79.352z"></path></g><g><path d="M69.869,71.358c-0.594-0.592-0.594-1.551,0-2.143c0.59-0.592,1.551-0.592,2.143,0l5.443,5.444   c0.592,0.593,0.592,1.552,0,2.144s-1.551,0.592-2.143,0L69.869,71.358z"></path></g><g><path d="M29.253,30.744c0.592,0.592,1.551,0.592,2.143,0c0.593-0.592,0.593-1.551,0-2.143l-5.445-5.445   c-0.591-0.592-1.551-0.592-2.143,0c-0.593,0.592-0.593,1.551,0,2.143L29.253,30.744z"></path></g><g><path d="M29.253,69.216c0.592-0.592,1.551-0.592,2.143,0c0.593,0.592,0.593,1.551,0,2.143l-5.445,5.445   c-0.591,0.592-1.551,0.592-2.143,0c-0.593-0.592-0.593-1.551,0-2.144L29.253,69.216z"></path></g><g><path d="M69.869,28.602c-0.594,0.592-0.594,1.551,0,2.143c0.59,0.592,1.551,0.592,2.143,0l5.443-5.445   c0.592-0.592,0.592-1.551,0-2.143s-1.551-0.592-2.143,0L69.869,28.602z"></path></g></svg>