<svg height='100px' width='100px'  fill="#ffffff" xmlns:dc="http://purl.org/dc/elements/1.1/" xmlns:cc="http://creativecommons.org/ns#" xmlns:rdf="http://www.w3.org/1999/02/22-rdf-syntax-ns#" xmlns:svg="http://www.w3.org/2000/svg" xmlns="http://www.w3.org/2000/svg" xmlns:sodipodi="http://sodipodi.sourceforge.net/DTD/sodipodi-0.dtd" xmlns:inkscape="http://www.inkscape.org/namespaces/inkscape" version="1.1" x="0px" y="0px" viewBox="0 0 100 100"><g transform="translate(0,-952.36218)"><path style="text-indent:0;text-transform:none;direction:ltr;block-progression:tb;baseline-shift:baseline;color:#000000;enable-background:accumulate;" d="m 38.599325,961.36882 a 3.0003,3.0003 0 0 0 -0.8437,0.2188 c -15.6794,6.3095 -26.75,21.5352 -26.75,39.31248 0,23.4284 19.2419,42.4688 42.875,42.4688 14.1314,0 26.7183,-6.8094 34.5313,-17.2813 a 3.0003,3.0003 0 0 0 -3.5313,-4.5625 c -4.2928,1.7275 -8.9836,2.6875 -13.9063,2.6875 -20.4256,0 -36.875,-16.3188 -36.875,-36.46878 0,-8.1013 2.6714,-15.5409 7.1876,-21.5937 a 3.0003,3.0003 0 0 0 -2.6876,-4.7813 z m -7.4062,10.875 c -1.9246,4.8241 -3.0938,10.0077 -3.0938,15.5 0,23.42848 19.2421,42.46878 42.875,42.46878 1.7947,0 3.5125,-0.2859 5.25,-0.5 -6.2071,4.7089 -13.8926,7.6563 -22.3437,7.6563 -20.4257,0 -36.875,-16.3188 -36.875,-36.4688 0,-11.66758 5.5707,-21.98978 14.1875,-28.65628 z" fill="#ffffff" fill-opacity="1" stroke="none" marker="none" visibility="visible" display="inline" overflow="visible"></path></g></svg>